<svg xmlns="http://www.w3.org/2000/svg" viewBox="0 0 131.7 44"><defs><style>.cls-1{fill:#a6a6a6;}.cls-2{fill:#fff;}</style></defs><title>Asset 2</title><g id="Layer_2" data-name="Layer 2"><g id="Layer_1-2" data-name="Layer 1"><path class="cls-1" d="M121.2,0H8.3A16.35,16.35,0,0,0,6.1.2,8.64,8.64,0,0,0,4,.9,5.94,5.94,0,0,0,2.2,2.2,5.94,5.94,0,0,0,.9,4,8.64,8.64,0,0,0,.2,6.1,16.35,16.35,0,0,0,0,8.3V35.7a16.35,16.35,0,0,0,.2,2.2A8.64,8.64,0,0,0,.9,40a5.94,5.94,0,0,0,1.3,1.8A5.94,5.94,0,0,0,4,43.1a8.64,8.64,0,0,0,2.1.7,16.35,16.35,0,0,0,2.2.2H123.4a16.35,16.35,0,0,0,2.2-.2,8.64,8.64,0,0,0,2.1-.7,7,7,0,0,0,3.1-3.1,8.64,8.64,0,0,0,.7-2.1,16.35,16.35,0,0,0,.2-2.2V8.3a16.35,16.35,0,0,0-.2-2.2,5.79,5.79,0,0,0-.7-2.1A7.71,7.71,0,0,0,127.7.9a8.64,8.64,0,0,0-2.1-.7,16.35,16.35,0,0,0-2.2-.2h-2.2Z"/><path d="M9.3,43h-1a14.92,14.92,0,0,1-2.1-.2,6.36,6.36,0,0,1-1.8-.6,5.83,5.83,0,0,1-1.5-1.1,5.27,5.27,0,0,1-1.1-1.5,6.36,6.36,0,0,1-.6-1.8A14.92,14.92,0,0,1,1,35.7V8.3a14.92,14.92,0,0,1,.2-2.1,5.46,5.46,0,0,1,.6-1.8A5.83,5.83,0,0,1,2.9,2.9,7.17,7.17,0,0,1,4.4,1.8a6.36,6.36,0,0,1,1.8-.6A14.92,14.92,0,0,1,8.3,1h115a12.31,12.31,0,0,1,2,.2,5.46,5.46,0,0,1,1.8.6,6.39,6.39,0,0,1,2.7,2.7,6.36,6.36,0,0,1,.6,1.8,14.92,14.92,0,0,1,.2,2.1V35.8a12.31,12.31,0,0,1-.2,2,5.46,5.46,0,0,1-.6,1.8,5.83,5.83,0,0,1-1.1,1.5,5.27,5.27,0,0,1-1.5,1.1,6.36,6.36,0,0,1-1.8.6,14.92,14.92,0,0,1-2.1.2H9.3Z"/><g id="_Group_" data-name=" Group "><g id="_Group_2" data-name=" Group 2"><g id="_Group_3" data-name=" Group 3"><path id="_Path_" data-name=" Path " class="cls-2" d="M27.3,22.3a5.41,5.41,0,0,1,2.6-4.6,5.78,5.78,0,0,0-4.4-2.4c-1.8-.2-3.6,1.1-4.6,1.1s-2.4-1.1-4-1.1a5.82,5.82,0,0,0-4.9,3c-2.1,3.7-.5,9.1,1.5,12.1,1,1.5,2.2,3.1,3.8,3s2.1-1,3.9-1,2.4,1,4,.9,2.7-1.5,3.7-2.9A13.53,13.53,0,0,0,30.6,27,4.83,4.83,0,0,1,27.3,22.3Z"/><path id="_Path_2" data-name=" Path 2" class="cls-2" d="M24.3,13.4a5.27,5.27,0,0,0,1.2-3.8A5.21,5.21,0,0,0,22,11.4a5.41,5.41,0,0,0-1.3,3.7A4.6,4.6,0,0,0,24.3,13.4Z"/></g></g><path class="cls-2" d="M46.5,29.9H41.3L40,33.6H37.8l4.9-13.7H45l4.9,13.7H47.7Zm-4.6-1.8H46l-2-6h-.1Z"/><path class="cls-2" d="M60.7,28.6c0,3.1-1.7,5.1-4.2,5.1A3.26,3.26,0,0,1,53.4,32h0v4.9h-2V23.6h2v1.7h0a3.82,3.82,0,0,1,3.2-1.8C59,23.5,60.7,25.5,60.7,28.6Zm-2.1,0c0-2-1-3.3-2.6-3.3s-2.6,1.4-2.6,3.3S54.5,32,56,32,58.6,30.6,58.6,28.6Z"/><path class="cls-2" d="M71.6,28.6c0,3.1-1.7,5.1-4.2,5.1A3.26,3.26,0,0,1,64.3,32h0v4.9h-2V23.6h2v1.7h0a3.82,3.82,0,0,1,3.2-1.8C70,23.5,71.6,25.5,71.6,28.6Zm-2.1,0c0-2-1-3.3-2.6-3.3s-2.6,1.4-2.6,3.3S65.4,32,66.9,32s2.6-1.4,2.6-3.4Z"/><path class="cls-2" d="M78.9,29.7c.2,1.4,1.5,2.2,3.3,2.2s3-.9,3-2.1-.7-1.7-2.5-2.1l-1.8-.4c-2.5-.6-3.7-1.8-3.7-3.7,0-2.4,2.1-4,5-4s4.9,1.6,4.9,4H85c-.1-1.4-1.3-2.2-2.9-2.2s-2.8.8-2.8,2c0,1,.7,1.5,2.5,2l1.5.4c2.8.7,4,1.8,4,3.8,0,2.6-2,4.2-5.3,4.2-3,0-5.1-1.6-5.2-4Z"/><path class="cls-2" d="M91.7,21.2v2.4h1.9v1.6H91.7v5.5c0,.9.4,1.3,1.2,1.3h.7v1.6a4.48,4.48,0,0,1-1.1.1c-2,0-2.8-.8-2.8-2.7V25.3H88.2V23.7h1.4V21.3h2.1Z"/><path class="cls-2" d="M94.7,28.6c0-3.1,1.8-5.1,4.7-5.1s4.7,2,4.7,5.1-1.8,5.1-4.7,5.1S94.7,31.7,94.7,28.6Zm7.3,0c0-2.1-1-3.4-2.6-3.4s-2.6,1.3-2.6,3.4,1,3.4,2.6,3.4,2.6-1.3,2.6-3.4Z"/><path class="cls-2" d="M105.8,23.6h1.9v1.7h0a2.46,2.46,0,0,1,2.4-1.8,1.7,1.7,0,0,1,.7.1v1.9a2.77,2.77,0,0,0-.9-.1,2,2,0,0,0-2.1,2v6.2h-2v-10Z"/><path class="cls-2" d="M120.3,30.6c-.3,1.8-2,3-4.3,3-2.9,0-4.7-1.9-4.7-5.1s1.8-5.1,4.6-5.1,4.5,1.9,4.5,4.9V29h-7v.1a2.59,2.59,0,0,0,2.4,2.8h.3a2.29,2.29,0,0,0,2.3-1.4h1.9Zm-6.9-3h5a2.31,2.31,0,0,0-2.3-2.5h-.2a2.54,2.54,0,0,0-2.5,2.5Z"/></g><g id="_Group_4" data-name=" Group 4"><path class="cls-2" d="M41.6,9.6a2.91,2.91,0,0,1,3.1,2.7v.6c0,2.1-1.1,3.3-3.1,3.3H39.2V9.6Zm-1.3,5.6h1.2a2.1,2.1,0,0,0,2.2-1.9v-.4a2,2,0,0,0-1.8-2.3H40.3Z"/><path class="cls-2" d="M45.9,13.7A2.43,2.43,0,0,1,48,11.1a2.35,2.35,0,0,1,2.6,2.1v.4a2.43,2.43,0,0,1-2.1,2.6,2.35,2.35,0,0,1-2.6-2.1A.3.3,0,0,1,45.9,13.7Zm3.6,0c0-1.1-.5-1.7-1.3-1.7s-1.3.6-1.3,1.7.5,1.7,1.3,1.7,1.3-.6,1.3-1.7Z"/><path class="cls-2" d="M56.7,16.2h-1l-1-3.6h-.1l-1,3.6h-1l-1.4-5h1l.9,3.8h.1l1-3.8h.9l1,3.8h.1l.9-3.8h1Z"/><path class="cls-2" d="M59.2,11.2h.9V12h.1a1.55,1.55,0,0,1,1.5-.9,1.53,1.53,0,0,1,1.7,1.5v3.6h-1v-3c0-.8-.3-1.2-1.1-1.2a1.2,1.2,0,0,0-1.2,1.1v3.1h-1v-5Z"/><path class="cls-2" d="M65,9.3h1v6.9H65Z"/><path class="cls-2" d="M67.4,13.7a2.36,2.36,0,1,1,4.7-.5v.4A2.43,2.43,0,0,1,70,16.2a2.35,2.35,0,0,1-2.6-2.1A.3.3,0,0,1,67.4,13.7Zm3.6,0c0-1.1-.5-1.7-1.3-1.7s-1.3.6-1.3,1.7.5,1.7,1.3,1.7S71,14.8,71,13.7Z"/><path class="cls-2" d="M73.1,14.8c0-.9.7-1.4,1.8-1.5l1.3-.1v-.4c0-.5-.3-.8-1-.8a.92.92,0,0,0-1,.6h-1c.1-.9.9-1.4,2-1.4s1.9.6,1.9,1.7v3.4h-.9v-.7h0a1.76,1.76,0,0,1-1.5.8,1.4,1.4,0,0,1-1.6-1.3Zm3.1-.5v-.4L75,14c-.7,0-1,.3-1,.7a.81.81,0,0,0,.9.7,1.11,1.11,0,0,0,1.3-1.1Z"/><path class="cls-2" d="M78.5,13.7c0-1.6.8-2.6,2.1-2.6a1.65,1.65,0,0,1,1.5.9h.1V9.3h1v6.9h-1v-.8h-.1a1.7,1.7,0,0,1-1.6.9C79.3,16.2,78.5,15.3,78.5,13.7Zm1,0c0,1.1.5,1.7,1.3,1.7s1.3-.6,1.3-1.7S81.6,12,80.8,12s-1.3.6-1.3,1.7Z"/><path class="cls-2" d="M87.2,13.7a2.36,2.36,0,0,1,4.7-.5v.4a2.36,2.36,0,0,1-4.7.5A.3.3,0,0,1,87.2,13.7Zm3.6,0c0-1.1-.5-1.7-1.3-1.7s-1.3.6-1.3,1.7.5,1.7,1.3,1.7S90.8,14.8,90.8,13.7Z"/><path class="cls-2" d="M93.1,11.2H94V12h.1a1.55,1.55,0,0,1,1.5-.9,1.53,1.53,0,0,1,1.7,1.5v3.6h-1v-3c0-.8-.3-1.2-1.1-1.2A1.2,1.2,0,0,0,94,13.1v3.1H93v-5Z"/><path class="cls-2" d="M102.9,10v1.3H104v.8h-1.1v2.5c0,.5.2.7.7.7h.4v.8h-.5c-1.1,0-1.5-.4-1.5-1.3V12h-.8v-.8h.8V10Z"/><path class="cls-2" d="M105.3,9.3h1V12h.1a1.65,1.65,0,0,1,1.5-.9,1.59,1.59,0,0,1,1.7,1.5v3.5h-1v-3c0-.8-.4-1.2-1.1-1.2a1.07,1.07,0,0,0-1.2,1.1v3.1h-1Z"/><path class="cls-2" d="M115.2,14.8a2,2,0,0,1-2.1,1.4,2.24,2.24,0,0,1-2.3-2.2v-.4a2.28,2.28,0,0,1,2-2.6h.3c1.4,0,2.2.9,2.2,2.5v.3h-3.5v.1a1.27,1.27,0,0,0,1.2,1.4h.1a1.22,1.22,0,0,0,1.2-.6Zm-3.4-1.6h2.5a1.22,1.22,0,0,0-1.1-1.3h-.1a1.32,1.32,0,0,0-1.3,1.3Z"/></g></g></g></svg>