<svg xmlns="http://www.w3.org/2000/svg" viewBox="0 0 236.68 477.92"><defs><style>.cls-1{fill:#fff;}</style></defs><title>Asset 4</title><g id="Layer_2" data-name="Layer 2"><g id="Layer_1-2" data-name="Layer 1"><g id="Phone_Monochrome" data-name="Phone Monochrome"><path d="M206.15,477.92H30.52A30.25,30.25,0,0,1,0,447.82V30.1A30.25,30.25,0,0,1,30.52,0H206.15a30.26,30.26,0,0,1,30.53,30.1V447.82A30.26,30.26,0,0,1,206.15,477.92Z"/><path class="cls-1" d="M118.34,464.94a17.13,17.13,0,1,1,17.37-17.12A17.26,17.26,0,0,1,118.34,464.94Zm0-32.41a15.29,15.29,0,1,0,15.5,15.29A15.42,15.42,0,0,0,118.34,432.53Z"/><rect class="cls-1" x="96.27" y="26.4" width="44.14" height="1.84"/><ellipse class="cls-1" cx="77.01" cy="27.32" rx="3.29" ry="3.24"/></g></g></g></svg>